# xmcd
#
# Track frame offsets:
#	150
#	11250
#	25350
#	38775
#	50925
#	61800
#	71250
#	84600
#	97275
#	108900
#
# Disc length: 1635 seconds
#
# Revision: 0
# Processed by: cddbd v1.5.2PL0 Copyright (c) Steve Scherf et al.
# Submitted via: EasyCDDAExtractor 16.0.6.1
#
DISCID=8006610a
DTITLE=Barry Sadler - Sadler Country
DYEAR=1900
DGENRE=Country
TTITLE0=Ballad of the Green Berets
TTITLE1=This Little Girl of Mine
TTITLE2=It's a Matter of Time
TTITLE3=When the Snow is on the Roses
TTITLE4=I Just Couldn't Let Her Walk Away
TTITLE5=Claudette
TTITLE6=I Take it on Home
TTITLE7=If You Leave Me Tonight, I'll Cry
TTITLE8=Sweet Dreams Woman
TTITLE9=Sensuous Woman
EXTD=
EXTT0=
EXTT1=
EXTT2=
EXTT3=
EXTT4=
EXTT5=
EXTT6=
EXTT7=
EXTT8=
EXTT9=
PLAYORDER=
